<svg id="visual" viewBox="0 0 900 675" width="900" height="675" xmlns="http://www.w3.org/2000/svg" xmlns:xlink="http://www.w3.org/1999/xlink" version="1.1"><path d="M0 639L21.5 639.8C43 640.7 86 642.3 128.8 644.8C171.7 647.3 214.3 650.7 257.2 651.8C300 653 343 652 385.8 647.3C428.7 642.7 471.3 634.3 514.2 629.8C557 625.3 600 624.7 642.8 625.3C685.7 626 728.3 628 771.2 631.7C814 635.3 857 640.7 878.5 643.3L900 646L900 676L878.5 676C857 676 814 676 771.2 676C728.3 676 685.7 676 642.8 676C600 676 557 676 514.2 676C471.3 676 428.7 676 385.8 676C343 676 300 676 257.2 676C214.3 676 171.7 676 128.8 676C86 676 43 676 21.5 676L0 676Z" fill="#279155" stroke-linecap="round" stroke-linejoin="miter"></path></svg>