<svg id="visual" viewBox="0 0 900 900" width="900" height="900" xmlns="http://www.w3.org/2000/svg" xmlns:xlink="http://www.w3.org/1999/xlink" version="1.1"><path d="M0 852L21.5 853.2C43 854.3 86 856.7 128.8 860C171.7 863.3 214.3 867.7 257.2 869.3C300 871 343 870 385.8 863.8C428.7 857.7 471.3 846.3 514.2 840.3C557 834.3 600 833.7 642.8 834.7C685.7 835.7 728.3 838.3 771.2 843.2C814 848 857 855 878.5 858.5L900 862L900 901L878.5 901C857 901 814 901 771.2 901C728.3 901 685.7 901 642.8 901C600 901 557 901 514.2 901C471.3 901 428.7 901 385.8 901C343 901 300 901 257.2 901C214.3 901 171.7 901 128.8 901C86 901 43 901 21.5 901L0 901Z" fill="#279155" stroke-linecap="round" stroke-linejoin="miter"></path></svg>